<svg width="153" height="114" viewBox="0 0 153 114" fill="none" xmlns="http://www.w3.org/2000/svg">
<path opacity="0.05" d="M73.7792 104L73.7792 109L68.7792 109L21.1542 109L16.1542 109L16.1542 104L16.1542 60.1865L16.1542 55.4563L20.8771 55.1942L31.4167 54.609L11.4739 12.1247L8.12946 5.00001L16 5.00001L33.7305 5.00001L36.4882 5.00001L37.9595 7.33244L73.0082 62.896L73.7792 64.1184L73.7792 65.5636L73.7792 104ZM148 104L148 109L143 109L95.375 109L90.375 109L90.375 104L90.375 60.1865L90.375 55.4594L95.0947 55.1943L105.434 54.6137L85.4885 12.1246L82.1441 5.00001L90.0146 5L107.745 5L110.494 5L111.967 7.32124L147.222 62.8848L148 64.1112L148 65.5636L148 104Z" stroke="#2878EB" stroke-width="10"/>
</svg>
