<svg width="43" height="32" viewBox="0 0 43 32" fill="none" xmlns="http://www.w3.org/2000/svg">
<path opacity="0.2" d="M24.0192 1L24.0192 0.500002L24.5192 0.500002L39.6106 0.500003L40.1106 0.500003L40.1106 1L40.1106 14.9831L40.1106 15.4559L39.6385 15.4823L34.6919 15.7588L41.6971 30.7888L42.0286 31.5L41.2439 31.5L35.6254 31.5L35.3486 31.5L35.2017 31.2654L24.0954 13.5323L24.0192 13.4106L24.0192 13.267L24.0192 1ZM0.500003 1L0.500003 0.5L1 0.5L16.0915 0.500001L16.5915 0.500001L16.5915 1L16.5915 14.983L16.5915 15.4556L16.1197 15.4823L11.2379 15.7584L18.2433 30.7888L18.5747 31.5L17.7901 31.5L12.1716 31.5L11.8956 31.5L11.7486 31.2665L0.576953 13.5335L0.500002 13.4113L0.500002 13.2669L0.500003 1Z" stroke="#2878EB"/>
</svg>
