<svg width="43" height="32" viewBox="0 0 43 32" fill="none" xmlns="http://www.w3.org/2000/svg">
<path opacity="0.2" d="M18.9219 0.999998L18.9219 0.499998L18.4219 0.499998L3.29254 0.499997L2.79254 0.499997L2.79254 0.999997L2.79254 14.983L2.79254 15.4559L3.2647 15.4823L8.22468 15.7589L1.20217 30.7883L0.869648 31.5L1.65516 31.5L7.28772 31.5L7.56417 31.5L7.71117 31.2659L18.8453 13.5328L18.9219 13.4109L18.9219 13.2669L18.9219 0.999998ZM42.5 1L42.5 0.5L42 0.5L26.8707 0.499999L26.3707 0.499999L26.3707 0.999999L26.3707 14.983L26.3707 15.4556L26.8425 15.4823L31.7375 15.7584L24.7148 30.7883L24.3823 31.5L25.1678 31.5L30.8004 31.5L31.076 31.5L31.2231 31.267L42.4227 13.5339L42.5 13.4116L42.5 13.2669L42.5 1Z" stroke="#2878EB"/>
</svg>
