<svg xmlns="http://www.w3.org/2000/svg" viewBox="0 0 655.02 146.49"><defs><style>.cls-1{fill:#fff;}.cls-2{fill:#64c8ff;}</style></defs><g id="Layer_2" data-name="Layer 2"><g id="Capa_1" data-name="Capa 1"><path class="cls-1" d="M261.35,58.2c-98.79,32-200,31-261.35-3.36v91.65H654.35V58.2C541.5-54.66,361.77,25.67,261.35,58.2Z"/><path class="cls-2" d="M201.26,117.9l.31,2c2-.3,4-.63,6-1l-.33-2Q204.24,117.44,201.26,117.9Zm11.89-2,.37,2c2-.37,4-.75,5.95-1.16l-.4-2Q216.1,115.31,213.15,115.87Zm-23.84,3.69.25,2c2-.24,4-.51,6-.78l-.27-2Q192.3,119.19,189.31,119.56Zm-24,2.17.12,2c2-.11,4-.25,6.05-.4l-.15-2Q168.3,121.56,165.29,121.73ZM225,113.47l.42,2c2-.43,3.94-.87,5.91-1.34l-.45-1.94Q227.9,112.83,225,113.47Zm-71.74,8.76,0,2q3-.08,6.06-.21l-.08-2Q156.24,122.15,153.24,122.23Zm24.08-1.4.18,2c2-.19,4-.38,6-.6l-.21-2C181.31,120.46,179.31,120.65,177.32,120.83Zm117-28.34.66,1.9,5.72-2L300,90.52Zm-11.43,4,.66,1.89,5.71-2-.65-1.89Zm22.88-7.9.64,1.89,5.73-2-.65-1.89Zm-57.34,19.06.54,1.92q2.91-.82,5.82-1.69l-.57-1.91Q251.28,106.79,248.38,107.61Zm-11.66,3.1.49,1.94q2.92-.74,5.87-1.51l-.52-1.94C240.61,109.72,238.66,110.23,236.72,110.71Zm23.22-6.55.6,1.91c1.92-.61,3.84-1.22,5.77-1.86l-.63-1.9Q262.8,103.26,259.94,104.16Zm11.46-3.77.65,1.89,5.72-2-.65-1.89Zm45.78-15.74.63,1.9,5.74-1.93-.64-1.89ZM33.88,106.77c1.9.64,3.83,1.26,5.77,1.87l.6-1.9q-2.89-.92-5.74-1.87Zm-11.43-4.08c1.88.72,3.78,1.41,5.69,2.1l.68-1.89q-2.87-1-5.66-2.08Zm34.7,10.93c2,.49,3.91,1,5.89,1.44l.46-1.94q-3-.7-5.86-1.44Zm-11.7-3.21c1.93.57,3.87,1.12,5.84,1.66l.52-1.93c-1.94-.54-3.88-1.08-5.79-1.65ZM2.93,94.52l2.74,1.24.82-1.82L3.77,92.7Zm8.26,3.65q2.78,1.18,5.61,2.32l.74-1.86c-1.88-.75-3.73-1.52-5.57-2.3ZM129,124q3,.12,6.06.2l.05-2q-3-.08-6-.2Zm-24.18-1.81c2,.21,4,.42,6,.6l.19-2c-2-.18-4-.39-6-.6Zm12.07,1.11q3,.22,6.06.4l.11-2c-2-.11-4-.25-6-.4Zm24.25-1v2H144l3.23,0,0-2Q144.18,122.36,141.18,122.34Zm-60.33-3.58c2,.36,4,.7,6,1l.32-2c-2-.33-4-.66-5.94-1Zm12,1.94q3,.43,6,.82l.25-2q-3-.37-6-.81ZM69,116.4q2.94.64,5.94,1.23l.38-2q-3-.58-5.9-1.22ZM530.37,48.75c2,.15,4,.34,6,.54l.2-2c-2-.2-4.05-.39-6-.55Zm23.88,3c2,.34,4,.71,5.92,1.11l.39-2c-2-.4-4-.78-6-1.12Zm11.8,2.37c2,.45,3.93.93,5.85,1.43l.5-1.94c-1.94-.5-3.92-1-5.9-1.43Zm11.66,3c1.93.55,3.87,1.14,5.76,1.74l.61-1.91c-1.91-.61-3.87-1.2-5.82-1.76Zm11.47,3.64c1.9.67,3.8,1.37,5.65,2.08l.72-1.87c-1.87-.72-3.79-1.42-5.71-2.09ZM542.35,50c2,.25,4,.52,6,.82l.3-2c-2-.3-4-.58-6-.83ZM506.3,45.81v2h.23c1.93,0,3.87,0,5.79.06l0-2c-1.94,0-3.89-.06-5.83-.06Zm12,2.23q3,.1,6,.29l.12-2c-2-.12-4-.21-6.06-.29Zm82.08,17.07c1.84.77,3.7,1.58,5.52,2.41l.83-1.82c-1.84-.84-3.72-1.66-5.58-2.44ZM494.18,46l.08,2c2-.07,4-.13,6-.17l0-2Q497.21,45.93,494.18,46ZM642.07,89c1.58,1.2,3.18,2.44,4.74,3.7l1.25-1.56c-1.57-1.27-3.19-2.53-4.79-3.74Zm10.67,6-1.3,1.52c.75.64,1.5,1.3,2.25,2L655,97Q653.88,96,652.74,95.05Zm-20.49-13c1.66,1.1,3.33,2.24,5,3.4l1.16-1.63c-1.65-1.17-3.34-2.32-5-3.43ZM622,75.76c1.74,1,3.48,2,5.17,3.08l1.05-1.71c-1.71-1-3.46-2.09-5.22-3.1ZM611.38,70.1c1.78.88,3.58,1.8,5.36,2.75l.94-1.77c-1.8-1-3.62-1.89-5.42-2.77ZM470,47.73l.2,2c2-.21,4-.39,6-.57l-.17-2Q473,47.42,470,47.73ZM375,66.64l.54,1.92,5.82-1.6L380.81,65C378.85,65.56,376.91,66.09,375,66.64ZM363.33,70l.56,1.91,5.8-1.68-.55-1.92Zm23.33-6.52.51,1.94L393,63.89l-.5-1.94ZM340.18,77.09l.6,1.9,5.77-1.82-.6-1.91ZM398.4,60.48l.48,2c2-.48,3.92-1,5.89-1.42l-.46-1.95Zm-46.67,13,.59,1.91c1.92-.59,3.84-1.18,5.78-1.76l-.58-1.92ZM422.1,55.15l.4,2,5.93-1.18-.38-2C426.07,54.35,424.08,54.75,422.1,55.15Zm35.88-6,.25,2q3-.39,6-.73l-.23-2C462,48.61,460,48.86,458,49.12ZM328.66,80.82l.63,1.9L335,80.85l-.62-1.91ZM446,50.83l.3,2q3-.47,6-.89l-.29-2Q449,50.36,446,50.83Zm-12,2,.35,2c2-.36,4-.7,5.95-1l-.33-2Zm48.07-6.16.14,2c2-.14,4-.27,6-.38l-.11-2C486.12,46.42,484.1,46.55,482.09,46.69Zm-71.86,11,.44,1.95c2-.44,3.94-.88,5.91-1.3l-.42-2C414.18,56.82,412.2,57.26,410.23,57.7Z"/></g></g></svg>