<svg width="1118" height="468" viewBox="0 0 1118 468" fill="none" xmlns="http://www.w3.org/2000/svg">
<g filter="url(#filter0_d_1_11267)">
<mask id="mask0_1_11267" style="mask-type:alpha" maskUnits="userSpaceOnUse" x="21" y="17" width="1076" height="426">
<path d="M21 21.8834C21 17.1985 27.0389 15.2824 30.0398 18.88C446.496 518.133 681.327 523.284 1087.9 19.3264C1090.87 15.6477 1097 17.5293 1097 22.256V386.889C1097 389.336 1095.17 391.433 1092.76 391.83C674.109 460.535 438.896 459.578 25.2412 391.828C22.825 391.432 21 389.336 21 386.887V21.8834Z" fill="white"/>
</mask>
<g mask="url(#mask0_1_11267)">
<path d="M21 21.8834C21 17.1985 27.0389 15.2824 30.0398 18.88C446.496 518.133 681.327 523.284 1087.9 19.3264C1090.87 15.6477 1097 17.5293 1097 22.256V386.889C1097 389.336 1095.17 391.433 1092.76 391.83C674.109 460.535 438.896 459.578 25.2412 391.828C22.825 391.433 21 389.336 21 386.887V21.8834Z" fill="white"/>
<path opacity="0.2" d="M699.681 356.934C659.762 387.059 643.972 434.443 641.067 454.369L1282.46 270.277L1250.25 59.3253C1198.6 51.5212 1075.65 40.7922 997.008 60.309C898.706 84.7051 820.183 216.28 811.442 258.246C802.701 300.212 749.58 319.277 699.681 356.934Z" fill="url(#paint0_linear_1_11267)"/>
<path opacity="0.2" d="M50.5637 174.373C-16.9202 174.968 -76.6713 218.193 -98.1113 239.731L706.605 593.726L871.434 309.054C827.727 253.123 716.357 129.484 620.537 82.3774C500.763 23.4946 300.614 112.318 252.87 155.319C205.126 198.32 134.918 173.63 50.5637 174.373Z" fill="url(#paint1_linear_1_11267)"/>
</g>
</g>
<defs>
<filter id="filter0_d_1_11267" x="0" y="0.0102539" width="1118" height="467.99" filterUnits="userSpaceOnUse" color-interpolation-filters="sRGB">
<feFlood flood-opacity="0" result="BackgroundImageFix"/>
<feColorMatrix in="SourceAlpha" type="matrix" values="0 0 0 0 0 0 0 0 0 0 0 0 0 0 0 0 0 0 127 0" result="hardAlpha"/>
<feOffset dy="4"/>
<feGaussianBlur stdDeviation="10.5"/>
<feComposite in2="hardAlpha" operator="out"/>
<feColorMatrix type="matrix" values="0 0 0 0 0.6 0 0 0 0 0.00392157 0 0 0 0 1 0 0 0 0.15 0"/>
<feBlend mode="normal" in2="BackgroundImageFix" result="effect1_dropShadow_1_11267"/>
<feBlend mode="normal" in="SourceGraphic" in2="effect1_dropShadow_1_11267" result="shape"/>
</filter>
<linearGradient id="paint0_linear_1_11267" x1="202.897" y1="281.87" x2="1144.99" y2="273.654" gradientUnits="userSpaceOnUse">
<stop stop-color="#710EEE"/>
<stop offset="1" stop-color="#710EEE" stop-opacity="0"/>
</linearGradient>
<linearGradient id="paint1_linear_1_11267" x1="-369.858" y1="-363.621" x2="629.353" y2="392.762" gradientUnits="userSpaceOnUse">
<stop stop-color="#710EEE"/>
<stop offset="1" stop-color="#710EEE" stop-opacity="0"/>
</linearGradient>
</defs>
</svg>
